<?xml version="1.0" encoding="UTF-8" standalone="no"?>
<!-- Created with Inkscape (http://www.inkscape.org/) -->
<svg xmlns:dc="http://purl.org/dc/elements/1.1/" xmlns:cc="http://creativecommons.org/ns#" xmlns:rdf="http://www.w3.org/1999/02/22-rdf-syntax-ns#" xmlns:svg="http://www.w3.org/2000/svg" xmlns="http://www.w3.org/2000/svg" xmlns:sodipodi="http://sodipodi.sourceforge.net/DTD/sodipodi-0.dtd" xmlns:inkscape="http://www.inkscape.org/namespaces/inkscape" width="287.2533" height="528.74084" id="svg37409" version="1.1" inkscape:version="0.48.1 r9760" sodipodi:docname="New document 6">
  <defs id="defs37411"/>
  <sodipodi:namedview id="base" pagecolor="#ffffff" bordercolor="#666666" borderopacity="1.0" inkscape:pageopacity="0.0" inkscape:pageshadow="2" inkscape:zoom="0.35" inkscape:cx="117.73214" inkscape:cy="241.51328" inkscape:document-units="px" inkscape:current-layer="layer1" showgrid="false" fit-margin-top="0" fit-margin-left="0" fit-margin-right="0" fit-margin-bottom="0" inkscape:window-width="928" inkscape:window-height="825" inkscape:window-x="0" inkscape:window-y="24" inkscape:window-maximized="0"/>
  <g inkscape:label="Layer 1" inkscape:groupmode="layer" id="layer1" transform="translate(-257.26786,-245.13461)">
    <path inkscape:connector-curvature="0" style="fill:#331903;fill-opacity:1;fill-rule:nonzero;stroke:none;display:inline" d="m 386.2137,654.93648 c -1.48067,0.17477 -0.14319,68.71784 -3.57116,111.23094 l 0.73524,0.1042 21.95212,0 3.57116,0 c -1.5341,-32.91114 1.60388,-110.03339 1.26041,-111.02122 l -23.94777,-0.31594 z" id="path36667"/>
    <g style="display:inline" id="g3661" transform="matrix(3.3610913,0,0,3.3610913,1171.8448,-3628.5584)">
      <path inkscape:connector-curvature="0" sodipodi:nodetypes="ccccccccccccccccccccccc" id="path3663" d="m -246.96429,1153.0105 c -0.91387,7.8818 -5.46489,29.6553 -7.49999,32.6785 3.49355,-1.1673 3.42691,-1.6291 4.82142,-2.8571 -0.50154,5.8214 -8.08098,35.4424 -11.96428,38.5714 2.17915,-0.227 6.74064,-2.5572 10.71428,-6.6071 0.40222,4.5215 -7.63136,37.8579 -10.89285,44.1071 2.4528,-0.5366 4.0706,-3.0243 7.32142,-4.8214 1.28653,6.7742 -14.99248,34.2664 -17.14285,37.8571 4.09963,-1.0522 19.21968,-5.0726 20.89944,-8.7197 1.85832,5.6386 6.11036,9.9463 6.74388,14.1106 5.60812,-4.1645 12.66406,-9.0022 14.14239,-13.2481 2.93271,8.1613 11.11865,13.2115 14.11013,16.8022 0.67006,-4.9808 -0.66584,-14.9917 -1.7432,-19.9665 6.53232,7.6174 21.5275,10.2172 26.2045,8.343 -7.76523,-10.4734 -7.66047,-8.7488 -9.82143,-15.3572 4.08904,2.3201 7.52924,2.5766 13.92858,3.2143 -5.38639,-4.5409 -25.84347,-36.5653 -26.25001,-41.6071 2.84081,1.6363 5.70877,6.0699 11.07143,7.6785 -7.49449,-9.4629 -17.67408,-29.0244 -22.14286,-36.6071 4.63836,1.8815 3.74509,1.7561 10.35715,3.5714 -6.24508,-6.9347 -18.84647,-29.3116 -19.28572,-31.0714 1.48174,-0.3419 1.83782,1.5187 6.78572,-0.7143 -5.58781,-2.7688 -15.33613,-16.2746 -20.35715,-25.3571 z" style="fill:#1b3b02;fill-opacity:1;fill-rule:evenodd;stroke:#101d09;stroke-width:1px;stroke-linecap:butt;stroke-linejoin:miter;stroke-opacity:1"/>
      <path inkscape:connector-curvature="0" sodipodi:nodetypes="cccccc" id="path3665" d="m -249.29747,1182.0211 c 1.17005,0.5647 2.18226,1.5151 3.35231,2.9536 1.56753,-0.6965 2.80983,-1.7026 3.62373,-3.5714 1.80547,1.3898 3.64612,2.3927 5.53572,2.8571 0.3459,-1.3174 -0.25456,-3.2972 -0.71429,-5.1785 1.9131,1.3332 3.81174,2.5797 5.55923,2.9193" style="fill:none;stroke:#101d09;stroke-width:1px;stroke-linecap:butt;stroke-linejoin:miter;stroke-opacity:1"/>
      <path inkscape:connector-curvature="0" sodipodi:nodetypes="cccccccccc" id="path3667" d="m -250.99746,1214.5969 c 0.18802,3.0007 1.74728,6.4162 2.31504,6.1324 0.34411,-2.1955 1.59356,-4.8502 2.61099,-7.7189 1.08799,2.7557 3.26551,5.2462 4.85715,7.3304 1.84247,-1.9338 2.55214,-5.3311 3.89285,-8.9375 2.24611,2.5659 4.12435,4.6914 5.5625,7.5804 1.06281,-2.4237 1.34166,-4.367 1.40179,-8.2947 1.63177,2.6013 4.828,5.323 6.92857,6.8304 -0.29933,-2.6663 -1.13906,-5.2621 -0.67857,-8.0804 0.8753,1.0818 2.76867,3.0503 3.19448,3.383" style="fill:none;stroke:#101d09;stroke-width:1px;stroke-linecap:butt;stroke-linejoin:miter;stroke-opacity:1"/>
      <path inkscape:connector-curvature="0" sodipodi:nodetypes="cccccccc" id="path3669" d="m -254.46429,1254.0819 3.92857,-2.6785 c 1.99695,4.0059 5.37727,6.9706 10.17857,9.107 2.03201,-3.665 6.9429,-8.2185 10.35715,-11.9642 1.74818,3.391 3.88507,7.2402 4.28571,6.9643 2.36864,-0.9216 4.05985,-3.4239 5,-7.6786 3.67988,2.9951 6.91526,4.4449 9.64286,4.1071 0.35395,-2.3466 1.22016,-6.1543 -1.27879,-13.2557" style="fill:none;stroke:#101d09;stroke-width:1px;stroke-linecap:butt;stroke-linejoin:miter;stroke-opacity:1"/>
    </g>
    <path inkscape:connector-curvature="0" style="fill:#331903;fill-opacity:1;fill-rule:evenodd;stroke:none;display:inline" d="m 386.14167,750.87849 c 3.81739,6.65227 -4.63891,12.00683 -11.65879,12.28916 -7.01987,0.28233 -5.23406,1.89128 -1.36544,2.10068 3.86862,0.20839 7.29,0.76398 7.56245,1.78575 -5.49414,1.18209 -12.6061,4.90417 -6.09197,4.41143 6.51413,-0.49274 13.32249,-1.80995 14.4947,-1.57568 1.62324,0.32603 5.89532,2.00052 8.58766,2.57997 8.71894,1.69534 7.33188,2.664 5.86766,-1.94943 0.0101,0 20.85812,1.42309 13.37872,-1.05068 -7.4794,-2.47376 7.18094,1.16899 5.14667,-2.41561 -14.56579,-0.76398 -15.40828,-15.45564 -16.80546,-22.0575 -1.39717,-6.60186 -22.93359,-0.77036 -19.1162,5.88191 z" id="path36829" sodipodi:nodetypes="czzczscczczz"/>
  </g>
  <metadata>
    <rdf:RDF>
      <cc:Work>
        <dc:format>image/svg+xml</dc:format>
        <dc:type rdf:resource="http://purl.org/dc/dcmitype/StillImage"/>
        <cc:license rdf:resource="http://creativecommons.org/licenses/publicdomain/"/>
        <dc:publisher>
          <cc:Agent rdf:about="http://openclipart.org/">
            <dc:title>Open Clip Art Library</dc:title>
          </cc:Agent>
        </dc:publisher>
        <dc:title>Spruce</dc:title>
        <dc:date>2011-05-27T22:23:55</dc:date>
        <dc:description>A pine tree that is slightly bent</dc:description>
        <dc:source>http://openclipart.org/detail/140917/spruce-by-artokem</dc:source>
        <dc:creator>
          <cc:Agent>
            <dc:title>artokem</dc:title>
          </cc:Agent>
        </dc:creator>
        <dc:subject>
          <rdf:Bag>
            <rdf:li>clip art</rdf:li>
            <rdf:li>clipart</rdf:li>
            <rdf:li>picea</rdf:li>
            <rdf:li>spruce</rdf:li>
            <rdf:li>tree</rdf:li>
          </rdf:Bag>
        </dc:subject>
      </cc:Work>
      <cc:License rdf:about="http://creativecommons.org/licenses/publicdomain/">
        <cc:permits rdf:resource="http://creativecommons.org/ns#Reproduction"/>
        <cc:permits rdf:resource="http://creativecommons.org/ns#Distribution"/>
        <cc:permits rdf:resource="http://creativecommons.org/ns#DerivativeWorks"/>
      </cc:License>
    </rdf:RDF>
  </metadata>
</svg>
